<mxfile host="65bd71144e">
    <diagram id="GzyMJXsL5R1XIloIGuof" name="Page-1">
        <mxGraphModel dx="788" dy="563" grid="0" gridSize="10" guides="1" tooltips="1" connect="1" arrows="1" fold="1" page="1" pageScale="1" pageWidth="850" pageHeight="1100" math="0" shadow="0">
            <root>
                <mxCell id="0"/>
                <mxCell id="1" parent="0"/>
                <mxCell id="6" value="Users" style="swimlane;fontStyle=0;childLayout=stackLayout;horizontal=1;startSize=26;fillColor=none;horizontalStack=0;resizeParent=1;resizeParentMax=0;resizeLast=0;collapsible=1;marginBottom=0;html=1;" parent="1" vertex="1">
                    <mxGeometry x="29" y="38" width="181" height="338" as="geometry">
                        <mxRectangle x="107" y="134" width="66" height="26" as="alternateBounds"/>
                    </mxGeometry>
                </mxCell>
                <mxCell id="7" value="id" style="text;strokeColor=none;fillColor=none;align=left;verticalAlign=top;spacingLeft=4;spacingRight=4;overflow=hidden;rotatable=0;points=[[0,0.5],[1,0.5]];portConstraint=eastwest;whiteSpace=wrap;html=1;" parent="6" vertex="1">
                    <mxGeometry y="26" width="181" height="26" as="geometry"/>
                </mxCell>
                <mxCell id="8" value="username" style="text;strokeColor=none;fillColor=none;align=left;verticalAlign=top;spacingLeft=4;spacingRight=4;overflow=hidden;rotatable=0;points=[[0,0.5],[1,0.5]];portConstraint=eastwest;whiteSpace=wrap;html=1;" parent="6" vertex="1">
                    <mxGeometry y="52" width="181" height="26" as="geometry"/>
                </mxCell>
                <mxCell id="9" value="email" style="text;strokeColor=none;fillColor=none;align=left;verticalAlign=top;spacingLeft=4;spacingRight=4;overflow=hidden;rotatable=0;points=[[0,0.5],[1,0.5]];portConstraint=eastwest;whiteSpace=wrap;html=1;" parent="6" vertex="1">
                    <mxGeometry y="78" width="181" height="26" as="geometry"/>
                </mxCell>
                <mxCell id="10" value="first_name&lt;br&gt;" style="text;strokeColor=none;fillColor=none;align=left;verticalAlign=top;spacingLeft=4;spacingRight=4;overflow=hidden;rotatable=0;points=[[0,0.5],[1,0.5]];portConstraint=eastwest;whiteSpace=wrap;html=1;" parent="6" vertex="1">
                    <mxGeometry y="104" width="181" height="26" as="geometry"/>
                </mxCell>
                <mxCell id="11" value="second_name" style="text;strokeColor=none;fillColor=none;align=left;verticalAlign=top;spacingLeft=4;spacingRight=4;overflow=hidden;rotatable=0;points=[[0,0.5],[1,0.5]];portConstraint=eastwest;whiteSpace=wrap;html=1;" parent="6" vertex="1">
                    <mxGeometry y="130" width="181" height="26" as="geometry"/>
                </mxCell>
                <mxCell id="12" value="role" style="text;strokeColor=none;fillColor=none;align=left;verticalAlign=top;spacingLeft=4;spacingRight=4;overflow=hidden;rotatable=0;points=[[0,0.5],[1,0.5]];portConstraint=eastwest;whiteSpace=wrap;html=1;" parent="6" vertex="1">
                    <mxGeometry y="156" width="181" height="26" as="geometry"/>
                </mxCell>
                <mxCell id="13" value="password" style="text;strokeColor=none;fillColor=none;align=left;verticalAlign=top;spacingLeft=4;spacingRight=4;overflow=hidden;rotatable=0;points=[[0,0.5],[1,0.5]];portConstraint=eastwest;whiteSpace=wrap;html=1;" parent="6" vertex="1">
                    <mxGeometry y="182" width="181" height="26" as="geometry"/>
                </mxCell>
                <mxCell id="14" value="passwordConfirm" style="text;strokeColor=none;fillColor=none;align=left;verticalAlign=top;spacingLeft=4;spacingRight=4;overflow=hidden;rotatable=0;points=[[0,0.5],[1,0.5]];portConstraint=eastwest;whiteSpace=wrap;html=1;" parent="6" vertex="1">
                    <mxGeometry y="208" width="181" height="26" as="geometry"/>
                </mxCell>
                <mxCell id="15" value="passwordChangedAt" style="text;strokeColor=none;fillColor=none;align=left;verticalAlign=top;spacingLeft=4;spacingRight=4;overflow=hidden;rotatable=0;points=[[0,0.5],[1,0.5]];portConstraint=eastwest;whiteSpace=wrap;html=1;" parent="6" vertex="1">
                    <mxGeometry y="234" width="181" height="26" as="geometry"/>
                </mxCell>
                <mxCell id="16" value="passwordResetToken" style="text;strokeColor=none;fillColor=none;align=left;verticalAlign=top;spacingLeft=4;spacingRight=4;overflow=hidden;rotatable=0;points=[[0,0.5],[1,0.5]];portConstraint=eastwest;whiteSpace=wrap;html=1;" parent="6" vertex="1">
                    <mxGeometry y="260" width="181" height="26" as="geometry"/>
                </mxCell>
                <mxCell id="17" value="passwordResetExpiersToken" style="text;strokeColor=none;fillColor=none;align=left;verticalAlign=top;spacingLeft=4;spacingRight=4;overflow=hidden;rotatable=0;points=[[0,0.5],[1,0.5]];portConstraint=eastwest;whiteSpace=wrap;html=1;" parent="6" vertex="1">
                    <mxGeometry y="286" width="181" height="26" as="geometry"/>
                </mxCell>
                <mxCell id="18" value="active" style="text;strokeColor=none;fillColor=none;align=left;verticalAlign=top;spacingLeft=4;spacingRight=4;overflow=hidden;rotatable=0;points=[[0,0.5],[1,0.5]];portConstraint=eastwest;whiteSpace=wrap;html=1;" parent="6" vertex="1">
                    <mxGeometry y="312" width="181" height="26" as="geometry"/>
                </mxCell>
                <mxCell id="19" value="Projects" style="swimlane;fontStyle=0;childLayout=stackLayout;horizontal=1;startSize=26;fillColor=none;horizontalStack=0;resizeParent=1;resizeParentMax=0;resizeLast=0;collapsible=1;marginBottom=0;html=1;" parent="1" vertex="1">
                    <mxGeometry x="643" y="38" width="181" height="234" as="geometry">
                        <mxRectangle x="107" y="134" width="66" height="26" as="alternateBounds"/>
                    </mxGeometry>
                </mxCell>
                <mxCell id="20" value="id" style="text;strokeColor=none;fillColor=none;align=left;verticalAlign=top;spacingLeft=4;spacingRight=4;overflow=hidden;rotatable=0;points=[[0,0.5],[1,0.5]];portConstraint=eastwest;whiteSpace=wrap;html=1;" parent="19" vertex="1">
                    <mxGeometry y="26" width="181" height="26" as="geometry"/>
                </mxCell>
                <mxCell id="59" value="ownerID" style="text;strokeColor=none;fillColor=none;align=left;verticalAlign=top;spacingLeft=4;spacingRight=4;overflow=hidden;rotatable=0;points=[[0,0.5],[1,0.5]];portConstraint=eastwest;whiteSpace=wrap;html=1;" parent="19" vertex="1">
                    <mxGeometry y="52" width="181" height="26" as="geometry"/>
                </mxCell>
                <mxCell id="21" value="name" style="text;strokeColor=none;fillColor=none;align=left;verticalAlign=top;spacingLeft=4;spacingRight=4;overflow=hidden;rotatable=0;points=[[0,0.5],[1,0.5]];portConstraint=eastwest;whiteSpace=wrap;html=1;" parent="19" vertex="1">
                    <mxGeometry y="78" width="181" height="26" as="geometry"/>
                </mxCell>
                <mxCell id="23" value="clients" style="text;strokeColor=none;fillColor=none;align=left;verticalAlign=top;spacingLeft=4;spacingRight=4;overflow=hidden;rotatable=0;points=[[0,0.5],[1,0.5]];portConstraint=eastwest;whiteSpace=wrap;html=1;" parent="19" vertex="1">
                    <mxGeometry y="104" width="181" height="26" as="geometry"/>
                </mxCell>
                <mxCell id="24" value="description" style="text;strokeColor=none;fillColor=none;align=left;verticalAlign=top;spacingLeft=4;spacingRight=4;overflow=hidden;rotatable=0;points=[[0,0.5],[1,0.5]];portConstraint=eastwest;whiteSpace=wrap;html=1;" parent="19" vertex="1">
                    <mxGeometry y="130" width="181" height="26" as="geometry"/>
                </mxCell>
                <mxCell id="25" value="startDate" style="text;strokeColor=none;fillColor=none;align=left;verticalAlign=top;spacingLeft=4;spacingRight=4;overflow=hidden;rotatable=0;points=[[0,0.5],[1,0.5]];portConstraint=eastwest;whiteSpace=wrap;html=1;" parent="19" vertex="1">
                    <mxGeometry y="156" width="181" height="26" as="geometry"/>
                </mxCell>
                <mxCell id="26" value="endDate" style="text;strokeColor=none;fillColor=none;align=left;verticalAlign=top;spacingLeft=4;spacingRight=4;overflow=hidden;rotatable=0;points=[[0,0.5],[1,0.5]];portConstraint=eastwest;whiteSpace=wrap;html=1;" parent="19" vertex="1">
                    <mxGeometry y="182" width="181" height="26" as="geometry"/>
                </mxCell>
                <mxCell id="31" value="status" style="text;strokeColor=none;fillColor=none;align=left;verticalAlign=top;spacingLeft=4;spacingRight=4;overflow=hidden;rotatable=0;points=[[0,0.5],[1,0.5]];portConstraint=eastwest;whiteSpace=wrap;html=1;" parent="19" vertex="1">
                    <mxGeometry y="208" width="181" height="26" as="geometry"/>
                </mxCell>
                <mxCell id="48" value="Tasks" style="swimlane;fontStyle=0;childLayout=stackLayout;horizontal=1;startSize=26;fillColor=none;horizontalStack=0;resizeParent=1;resizeParentMax=0;resizeLast=0;collapsible=1;marginBottom=0;html=1;" parent="1" vertex="1">
                    <mxGeometry x="432" y="38" width="181" height="260" as="geometry">
                        <mxRectangle x="107" y="134" width="66" height="26" as="alternateBounds"/>
                    </mxGeometry>
                </mxCell>
                <mxCell id="49" value="id" style="text;strokeColor=none;fillColor=none;align=left;verticalAlign=top;spacingLeft=4;spacingRight=4;overflow=hidden;rotatable=0;points=[[0,0.5],[1,0.5]];portConstraint=eastwest;whiteSpace=wrap;html=1;" parent="48" vertex="1">
                    <mxGeometry y="26" width="181" height="26" as="geometry"/>
                </mxCell>
                <mxCell id="75" value="projectID" style="text;strokeColor=none;fillColor=none;align=left;verticalAlign=top;spacingLeft=4;spacingRight=4;overflow=hidden;rotatable=0;points=[[0,0.5],[1,0.5]];portConstraint=eastwest;whiteSpace=wrap;html=1;" vertex="1" parent="48">
                    <mxGeometry y="52" width="181" height="26" as="geometry"/>
                </mxCell>
                <mxCell id="50" value="moderatorID" style="text;strokeColor=none;fillColor=none;align=left;verticalAlign=top;spacingLeft=4;spacingRight=4;overflow=hidden;rotatable=0;points=[[0,0.5],[1,0.5]];portConstraint=eastwest;whiteSpace=wrap;html=1;" parent="48" vertex="1">
                    <mxGeometry y="78" width="181" height="26" as="geometry"/>
                </mxCell>
                <mxCell id="60" value="name" style="text;strokeColor=none;fillColor=none;align=left;verticalAlign=top;spacingLeft=4;spacingRight=4;overflow=hidden;rotatable=0;points=[[0,0.5],[1,0.5]];portConstraint=eastwest;whiteSpace=wrap;html=1;" parent="48" vertex="1">
                    <mxGeometry y="104" width="181" height="26" as="geometry"/>
                </mxCell>
                <mxCell id="52" value="contributers" style="text;strokeColor=none;fillColor=none;align=left;verticalAlign=top;spacingLeft=4;spacingRight=4;overflow=hidden;rotatable=0;points=[[0,0.5],[1,0.5]];portConstraint=eastwest;whiteSpace=wrap;html=1;" parent="48" vertex="1">
                    <mxGeometry y="130" width="181" height="26" as="geometry"/>
                </mxCell>
                <mxCell id="53" value="description" style="text;strokeColor=none;fillColor=none;align=left;verticalAlign=top;spacingLeft=4;spacingRight=4;overflow=hidden;rotatable=0;points=[[0,0.5],[1,0.5]];portConstraint=eastwest;whiteSpace=wrap;html=1;" parent="48" vertex="1">
                    <mxGeometry y="156" width="181" height="26" as="geometry"/>
                </mxCell>
                <mxCell id="54" value="startDate" style="text;strokeColor=none;fillColor=none;align=left;verticalAlign=top;spacingLeft=4;spacingRight=4;overflow=hidden;rotatable=0;points=[[0,0.5],[1,0.5]];portConstraint=eastwest;whiteSpace=wrap;html=1;" parent="48" vertex="1">
                    <mxGeometry y="182" width="181" height="26" as="geometry"/>
                </mxCell>
                <mxCell id="55" value="endDate" style="text;strokeColor=none;fillColor=none;align=left;verticalAlign=top;spacingLeft=4;spacingRight=4;overflow=hidden;rotatable=0;points=[[0,0.5],[1,0.5]];portConstraint=eastwest;whiteSpace=wrap;html=1;" parent="48" vertex="1">
                    <mxGeometry y="208" width="181" height="26" as="geometry"/>
                </mxCell>
                <mxCell id="56" value="status" style="text;strokeColor=none;fillColor=none;align=left;verticalAlign=top;spacingLeft=4;spacingRight=4;overflow=hidden;rotatable=0;points=[[0,0.5],[1,0.5]];portConstraint=eastwest;whiteSpace=wrap;html=1;" parent="48" vertex="1">
                    <mxGeometry y="234" width="181" height="26" as="geometry"/>
                </mxCell>
                <mxCell id="61" value="Activities" style="swimlane;fontStyle=0;childLayout=stackLayout;horizontal=1;startSize=26;fillColor=none;horizontalStack=0;resizeParent=1;resizeParentMax=0;resizeLast=0;collapsible=1;marginBottom=0;html=1;" parent="1" vertex="1">
                    <mxGeometry x="231" y="38" width="181" height="208" as="geometry">
                        <mxRectangle x="107" y="134" width="66" height="26" as="alternateBounds"/>
                    </mxGeometry>
                </mxCell>
                <mxCell id="62" value="id" style="text;strokeColor=none;fillColor=none;align=left;verticalAlign=top;spacingLeft=4;spacingRight=4;overflow=hidden;rotatable=0;points=[[0,0.5],[1,0.5]];portConstraint=eastwest;whiteSpace=wrap;html=1;" parent="61" vertex="1">
                    <mxGeometry y="26" width="181" height="26" as="geometry"/>
                </mxCell>
                <mxCell id="63" value="taskID" style="text;strokeColor=none;fillColor=none;align=left;verticalAlign=top;spacingLeft=4;spacingRight=4;overflow=hidden;rotatable=0;points=[[0,0.5],[1,0.5]];portConstraint=eastwest;whiteSpace=wrap;html=1;" parent="61" vertex="1">
                    <mxGeometry y="52" width="181" height="26" as="geometry"/>
                </mxCell>
                <mxCell id="70" value="contributerID" style="text;strokeColor=none;fillColor=none;align=left;verticalAlign=top;spacingLeft=4;spacingRight=4;overflow=hidden;rotatable=0;points=[[0,0.5],[1,0.5]];portConstraint=eastwest;whiteSpace=wrap;html=1;" parent="61" vertex="1">
                    <mxGeometry y="78" width="181" height="26" as="geometry"/>
                </mxCell>
                <mxCell id="64" value="name" style="text;strokeColor=none;fillColor=none;align=left;verticalAlign=top;spacingLeft=4;spacingRight=4;overflow=hidden;rotatable=0;points=[[0,0.5],[1,0.5]];portConstraint=eastwest;whiteSpace=wrap;html=1;" parent="61" vertex="1">
                    <mxGeometry y="104" width="181" height="26" as="geometry"/>
                </mxCell>
                <mxCell id="66" value="description" style="text;strokeColor=none;fillColor=none;align=left;verticalAlign=top;spacingLeft=4;spacingRight=4;overflow=hidden;rotatable=0;points=[[0,0.5],[1,0.5]];portConstraint=eastwest;whiteSpace=wrap;html=1;" parent="61" vertex="1">
                    <mxGeometry y="130" width="181" height="26" as="geometry"/>
                </mxCell>
                <mxCell id="67" value="deadlineDate" style="text;strokeColor=none;fillColor=none;align=left;verticalAlign=top;spacingLeft=4;spacingRight=4;overflow=hidden;rotatable=0;points=[[0,0.5],[1,0.5]];portConstraint=eastwest;whiteSpace=wrap;html=1;" parent="61" vertex="1">
                    <mxGeometry y="156" width="181" height="26" as="geometry"/>
                </mxCell>
                <mxCell id="69" value="status" style="text;strokeColor=none;fillColor=none;align=left;verticalAlign=top;spacingLeft=4;spacingRight=4;overflow=hidden;rotatable=0;points=[[0,0.5],[1,0.5]];portConstraint=eastwest;whiteSpace=wrap;html=1;" parent="61" vertex="1">
                    <mxGeometry y="182" width="181" height="26" as="geometry"/>
                </mxCell>
            </root>
        </mxGraphModel>
    </diagram>
</mxfile>